<?xml version="1.0" encoding="UTF-8" standalone="no"?>
<!-- Created with Inkscape (http://www.inkscape.org/) -->

<svg
   xmlns:dc="http://purl.org/dc/elements/1.1/"
   xmlns:cc="http://creativecommons.org/ns#"
   xmlns:rdf="http://www.w3.org/1999/02/22-rdf-syntax-ns#"
   xmlns:svg="http://www.w3.org/2000/svg"
   xmlns="http://www.w3.org/2000/svg"
   xmlns:sodipodi="http://sodipodi.sourceforge.net/DTD/sodipodi-0.dtd"
   xmlns:inkscape="http://www.inkscape.org/namespaces/inkscape"
   width="744.09448819"
   height="1052.3622047"
   id="svg3217"
   version="1.1"
   inkscape:version="0.48+devel r10526 custom"
   sodipodi:docname="favicon.svg"
   inkscape:export-filename="/Users/pigne/Documents/Web/pigne.org/src/favicon32.ico.png"
   inkscape:export-xdpi="15"
   inkscape:export-ydpi="15">
  <defs
     id="defs3219">
    <inkscape:path-effect
       is_visible="true"
       id="path-effect1041"
       effect="spiro" />
    <inkscape:path-effect
       effect="spiro"
       id="path-effect1024"
       is_visible="true" />
    <inkscape:path-effect
       effect="spiro"
       id="path-effect1020"
       is_visible="true" />
    <inkscape:path-effect
       is_visible="true"
       id="path-effect1017"
       effect="spiro" />
    <inkscape:path-effect
       effect="spiro"
       id="path-effect1002"
       is_visible="true" />
    <inkscape:path-effect
       is_visible="true"
       id="path-effect1000"
       effect="spiro" />
    <inkscape:path-effect
       is_visible="true"
       id="path-effect980"
       effect="spiro" />
    <inkscape:path-effect
       is_visible="true"
       id="path-effect974"
       effect="spiro" />
    <inkscape:path-effect
       effect="spiro"
       id="path-effect970"
       is_visible="true" />
    <inkscape:path-effect
       is_visible="true"
       id="path-effect935"
       effect="spiro" />
    <inkscape:path-effect
       effect="spiro"
       id="path-effect931"
       is_visible="true" />
    <inkscape:path-effect
       is_visible="true"
       id="path-effect929"
       effect="spiro" />
    <inkscape:path-effect
       effect="spiro"
       id="path-effect843"
       is_visible="true" />
    <inkscape:path-effect
       is_visible="true"
       id="path-effect841"
       effect="spiro" />
    <inkscape:path-effect
       is_visible="true"
       id="path-effect827"
       effect="spiro" />
    <inkscape:path-effect
       is_visible="true"
       id="path-effect815"
       effect="spiro" />
    <inkscape:path-effect
       effect="spiro"
       id="path-effect799"
       is_visible="true" />
    <inkscape:path-effect
       effect="skeletal"
       id="path-effect795"
       is_visible="true"
       pattern="M 0,0 0,10 10,5 z"
       copytype="single_stretched"
       prop_scale="1"
       scale_y_rel="false"
       spacing="0"
       normal_offset="0"
       tang_offset="0"
       prop_units="false"
       vertical_pattern="false"
       fuse_tolerance="0" />
    <inkscape:path-effect
       effect="spiro"
       id="path-effect793"
       is_visible="true" />
    <inkscape:path-effect
       effect="skeletal"
       id="path-effect17"
       is_visible="true"
       pattern="M 0,0 0,10 10,5 z"
       copytype="single_stretched"
       prop_scale="1"
       scale_y_rel="false"
       spacing="0"
       normal_offset="0"
       tang_offset="0"
       prop_units="false"
       vertical_pattern="false"
       fuse_tolerance="0" />
    <inkscape:path-effect
       effect="spiro"
       id="path-effect15"
       is_visible="true" />
  </defs>
  <sodipodi:namedview
     id="base"
     pagecolor="#ffffff"
     bordercolor="#666666"
     borderopacity="1.0"
     inkscape:pageopacity="0.0"
     inkscape:pageshadow="2"
     inkscape:zoom="0.60245418"
     inkscape:cx="323.94267"
     inkscape:cy="471.40514"
     inkscape:document-units="px"
     inkscape:current-layer="layer1"
     showgrid="false"
     inkscape:window-width="1440"
     inkscape:window-height="852"
     inkscape:window-x="0"
     inkscape:window-y="0"
     inkscape:window-maximized="0"
     showguides="true"
     inkscape:guide-bbox="true">
    <sodipodi:guide
       orientation="1,0"
       position="318,761.5"
       id="guide803" />
    <sodipodi:guide
       orientation="1,0"
       position="218,704.5"
       id="guide807"
       inkscape:label="" />
    <sodipodi:guide
       orientation="1,0"
       position="418,858.5"
       id="guide809"
       inkscape:label="" />
  </sodipodi:namedview>
  <metadata
     id="metadata3222">
    <rdf:RDF>
      <cc:Work
         rdf:about="">
        <dc:format>image/svg+xml</dc:format>
        <dc:type
           rdf:resource="http://purl.org/dc/dcmitype/StillImage" />
      </cc:Work>
    </rdf:RDF>
  </metadata>
  <g
     inkscape:label="Layer 1"
     inkscape:groupmode="layer"
     id="layer1">
    <path
       style="fill:#000000;fill-opacity:1;stroke:none;stroke-width:0.97860610000000003px;stroke-linecap:butt;stroke-linejoin:miter;stroke-opacity:1"
       d="m 1104.434,655.48197 95.7464,-57.01238 95.7462,57.01238 0,77.88021 -95.7462,-56.45618 -95.7464,56.45618 0,-77.88021"
       id="path1022"
       inkscape:path-effect="#path-effect1024"
       inkscape:original-d="m 1104.434,655.48197 95.7464,-57.01238 95.7462,57.01238 0,77.88021 -95.7462,-56.45618 -95.7464,56.45618 z"
       inkscape:connector-curvature="0"
       sodipodi:nodetypes="ccccccc" />
    <text
       sodipodi:linespacing="150%"
       id="text3773"
       y="712.92603"
       x="1118.3014"
       style="font-size:32.50000000000000000px;font-style:normal;font-variant:normal;font-weight:500;font-stretch:normal;text-align:start;line-height:150%;letter-spacing:0px;word-spacing:0px;writing-mode:lr-tb;text-anchor:start;fill:none;stroke:none;stroke-width:1px;stroke-linecap:butt;stroke-linejoin:miter;stroke-opacity:1;font-family:Futura;-inkscape-font-specification:Futura Medium"
       xml:space="preserve"><tspan
         style="font-size:144px;font-style:normal;font-variant:normal;font-weight:bold;font-stretch:normal;line-height:150%;fill:#ffffff;fill-opacity:1;stroke:none;font-family:Droid Sans;-inkscape-font-specification:Droid Sans Bold"
         y="712.92603"
         x="1118.3014"
         id="tspan3775"
         sodipodi:role="line">YP</tspan></text>
    <path
       sodipodi:type="arc"
       style="color:#000000;fill:#000000;fill-opacity:1;fill-rule:nonzero;stroke:none;stroke-width:0.498;marker:none;visibility:visible;display:inline;overflow:visible;enable-background:accumulate"
       id="path976"
       sodipodi:cx="165.71428"
       sodipodi:cy="223.79076"
       sodipodi:rx="91.428574"
       sodipodi:ry="91.428574"
       d="m 257.14285,223.79076 a 91.428574,91.428574 0 1 1 -182.857144,0 91.428574,91.428574 0 1 1 182.857144,0 z"
       transform="matrix(1.0497184,0,0,1.0497184,1257.04,-252.39406)" />
    <path
       style="color:#000000;fill:#000000;fill-opacity:1;stroke:#ff0000;stroke-width:1;stroke-miterlimit:4;stroke-opacity:1;stroke-dasharray:none;marker:none;visibility:visible;display:inline;overflow:visible;enable-background:accumulate"
       d="M 662.40625 721.84375 L 596.84375 694.625 L 531.28125 721.84375 C 548.44447 737.93419 571.46131 747.84375 596.84375 747.84375 C 622.22337 747.84375 645.24362 737.93102 662.40625 721.84375 z "
       id="path960" />
    <path
       style="color:#000000;fill:#000000;fill-opacity:1;stroke:#ff0000;stroke-width:1;stroke-miterlimit:4;stroke-opacity:1;stroke-dasharray:none;marker:none;visibility:visible;display:inline;overflow:visible;enable-background:accumulate"
       d="M 685.65625 688.25 L 596.84375 637.625 L 508.03125 688.25 C 513.29856 701.10016 521.30933 712.49512 531.28125 721.84375 L 596.84375 694.625 L 662.40625 721.84375 C 672.38084 712.49414 680.38793 701.10261 685.65625 688.25 z "
       id="path958" />
    <path
       style="color:#000000;fill:#000000;fill-opacity:1;stroke:#ff0000;stroke-width:1;stroke-miterlimit:4;stroke-opacity:1;stroke-dasharray:none;marker:none;visibility:visible;display:inline;overflow:visible;enable-background:accumulate"
       d="M 691.9375 664.09375 L 596.84375 624.625 L 501.75 664.09375 C 502.82434 672.5274 504.91473 680.64693 508.03125 688.25 L 596.84375 637.625 L 685.65625 688.25 C 688.77277 680.64693 690.86316 672.5274 691.9375 664.09375 z "
       id="path956" />
    <path
       style="color:#000000;fill:#000000;fill-opacity:1;stroke:#ff0000;stroke-width:1;stroke-miterlimit:4;stroke-opacity:1;stroke-dasharray:none;marker:none;visibility:visible;display:inline;overflow:visible;enable-background:accumulate"
       d="M 686.90625 618.96875 L 596.84375 567.625 L 506.78125 618.96875 C 503.0213 629.24928 500.875 640.29239 500.875 651.875 C 500.875 656.02479 501.23906 660.08279 501.75 664.09375 L 596.84375 624.625 L 691.9375 664.09375 C 692.44844 660.08279 692.8125 656.02479 692.8125 651.875 C 692.8125 640.29239 690.6662 629.24928 686.90625 618.96875 z "
       id="path954" />
    <path
       style="color:#000000;fill:#000000;fill-opacity:1;stroke:#ff0000;stroke-width:1;stroke-miterlimit:4;stroke-opacity:1;stroke-dasharray:none;marker:none;visibility:visible;display:inline;overflow:visible;enable-background:accumulate"
       d="M 596.84375 555.90625 C 555.42124 555.90625 520.22785 582.20283 506.78125 618.96875 L 596.84375 567.625 L 686.90625 618.96875 C 673.45965 582.20283 638.26626 555.90625 596.84375 555.90625 z "
       id="path823" />
    <path
       transform="matrix(1.0497184,0,0,1.0497184,450.27061,-119.29305)"
       d="m 257.14285,223.79076 a 91.428574,91.428574 0 1 1 -182.857144,0 91.428574,91.428574 0 1 1 182.857144,0 z"
       sodipodi:ry="91.428574"
       sodipodi:rx="91.428574"
       sodipodi:cy="223.79076"
       sodipodi:cx="165.71428"
       id="path3771"
       style="color:#000000;fill:#000000;fill-opacity:1;fill-rule:nonzero;stroke:none;stroke-width:0.498;marker:none;visibility:visible;display:inline;overflow:visible;enable-background:accumulate"
       sodipodi:type="arc" />
    <path
       style="color:#000000;fill:#000000;fill-opacity:1;fill-rule:nonzero;stroke:none;stroke-width:0.498;marker:none;visibility:visible;display:inline;overflow:visible;enable-background:accumulate"
       d="m 122.03125,10.332269 c -53.00512,0 -95.96875,42.96363 -95.96875,95.968751 0,53.00512 42.96363,95.96875 95.96875,95.96875 53.00512,0 95.96875,-42.96363 95.96875,-95.96875 0,-53.005121 -42.96363,-95.968751 -95.96875,-95.968751 z m -78.875,48.59375 23.625,0 18.4375,42.312501 18.5625,-42.312501 23.46875,0 -31.21875,62.781251 0,40 -21.65625,0 0,-39.3125 -31.21875,-63.468751 z m 97.03125,0 28.5625,0 c 6.60938,0 12.28125,0.75 17.0625,2.25 4.82812,1.45313 8.8125,3.54687 11.90625,6.3125 3.14063,2.71875 5.4375,6.07813 6.9375,10.0625 1.5,3.9375 2.25,8.42187 2.25,13.4375 0,4.5 -0.67187,8.8125 -2.03125,12.937501 -1.35938,4.125 -3.60938,7.73437 -6.75,10.875 -3.09375,3.14063 -7.20312,5.65625 -12.3125,7.53125 -5.0625,1.875 -11.34375,2.8125 -18.84375,2.8125 l -4.96875,0 0,36.5625 -21.8125,0 0,-102.781251 z M 162,76.769769 l 0,30.531251 4.28125,0 c 6.14063,0 10.75,-1.21875 13.84375,-3.65625 3.14062,-2.4375 4.71875,-6.421881 4.71875,-11.906251 0,-5.10937 -1.40625,-8.875 -4.21875,-11.3125 -2.76562,-2.4375 -7.14062,-3.65625 -13.09375,-3.65625 l -5.53125,0 z"
       id="path3225"
       inkscape:connector-curvature="0"
       inkscape:export-filename="/Users/pigne/Documents/Web/pigne.org/src/favicon128.png"
       inkscape:export-xdpi="60.02"
       inkscape:export-ydpi="60.02" />
    <path
       style="fill:#000000;fill-opacity:1;stroke:#000000;stroke-width:1px;stroke-linecap:butt;stroke-linejoin:miter;stroke-opacity:1"
       d="m 418,389.36218 0,-41.5 -100,-57 -100,57 0,41.5 100,-41.5 100,41.5 0,28.5 0,41.5 -100,-41.5 -100,41.5 0,-41.5 100,-57 100,57"
       id="path797"
       inkscape:path-effect="#path-effect799"
       inkscape:original-d="m 418,389.36218 0,-41.5 -100,-57 -100,57 0,41.5 100,-41.5 100,41.5 0,28.5 0,41.5 -100,-41.5 -100,41.5 0,-41.5 100,-57 100,57"
       inkscape:connector-curvature="0"
       sodipodi:nodetypes="cccccccccccccc" />
    <path
       sodipodi:nodetypes="ccccccc"
       inkscape:connector-curvature="0"
       inkscape:original-d="m 786.4254,498.91959 95.7462,-57.01238 95.7462,57.01238 0,107.45859 -95.7462,-56.016 -95.7462,56.016 z"
       inkscape:path-effect="#path-effect827"
       id="path825"
       d="m 786.4254,498.91959 95.7462,-57.01238 95.7462,57.01238 0,107.45859 -95.7462,-56.016 -95.7462,56.016 0,-107.45859"
       style="fill:#000000;fill-opacity:1;stroke:#000000;stroke-width:0.9786061px;stroke-linecap:butt;stroke-linejoin:miter;stroke-opacity:1" />
    <path
       sodipodi:nodetypes="ccccccc"
       inkscape:connector-curvature="0"
       inkscape:original-d="m 933.89077,70.362184 100.00003,-57 100,57 0,41.499996 -100,-56.999997 -100.00004,56.999997 z"
       inkscape:path-effect="#path-effect929"
       id="path925"
       d="m 933.89077,70.362184 100.00003,-57 100,57 0,41.499996 -100,-56.999997 -100.00004,56.999997 10e-6,-41.499996"
       style="fill:#000000;fill-opacity:1;stroke:#000000;stroke-width:1px;stroke-linecap:butt;stroke-linejoin:miter;stroke-opacity:1" />
    <path
       style="fill:#000000;fill-opacity:1;stroke:#000000;stroke-width:1px;stroke-linecap:butt;stroke-linejoin:miter;stroke-opacity:1"
       d="m 933.89076,137.47321 100.00004,-57.000009 100,57.000009 0,41.49999 -100,-56.99999 -100.00004,56.99999 0,-41.49999"
       id="path968"
       inkscape:path-effect="#path-effect970"
       inkscape:original-d="m 933.89076,137.47321 100.00004,-57.000009 100,57.000009 0,41.49999 -100,-56.99999 -100.00004,56.99999 z"
       inkscape:connector-curvature="0"
       sodipodi:nodetypes="ccccccc" />
    <path
       sodipodi:nodetypes="ccccccc"
       inkscape:connector-curvature="0"
       inkscape:original-d="m 933.89075,204.58421 100.00005,-57 100,57 0,41.49999 -100,-56.99999 -100.00006,56.99999 z"
       inkscape:path-effect="#path-effect974"
       id="path972"
       d="m 933.89075,204.58421 100.00005,-57 100,57 0,41.49999 -100,-56.99999 -100.00006,56.99999 10e-6,-41.49999"
       style="fill:#000000;fill-opacity:1;stroke:#000000;stroke-width:1px;stroke-linecap:butt;stroke-linejoin:miter;stroke-opacity:1" />
    <path
       sodipodi:nodetypes="cccccccccccccc"
       inkscape:connector-curvature="0"
       inkscape:original-d="m 726.71717,360.86218 0,-41.5 -100,-57 -100,57 0,41.5 100,-57 100,57 0,28.5 0,41.5 -100,-57 -100,57 0,-41.5 100,-57 100,57"
       inkscape:path-effect="#path-effect980"
       id="path978"
       d="m 726.71717,360.86218 0,-41.5 -100,-57 -100,57 0,41.5 100,-57 100,57 0,28.5 0,41.5 -100,-57 -100,57 0,-41.5 100,-57 100,57"
       style="fill:#000000;fill-opacity:1;stroke:#fe0000;stroke-width:1px;stroke-linecap:butt;stroke-linejoin:miter;stroke-opacity:1" />
    <path
       sodipodi:nodetypes="ccccccc"
       inkscape:connector-curvature="0"
       inkscape:original-d="m 1351.0043,221.11894 86.4409,-75.06579 86.4408,75.06579 0,54.65316 -86.4408,-75.06578 -86.4409,75.06578 z"
       inkscape:path-effect="#path-effect1020"
       id="path996"
       d="m 1351.0043,221.11894 86.4409,-75.06579 86.4408,75.06579 0,54.65316 -86.4408,-75.06578 -86.4409,75.06578 0,-54.65316"
       style="fill:#000000;fill-opacity:1;stroke:#000000;stroke-width:1.06694722px;stroke-linecap:butt;stroke-linejoin:miter;stroke-opacity:1" />
    <path
       style="fill:#000000;fill-opacity:1;stroke:#000000;stroke-width:0.94982976px;stroke-linecap:butt;stroke-linejoin:miter;stroke-opacity:1"
       d="m 1356.0547,409.37609 95.4752,-53.86127 95.475,53.86127 0,39.21477 -95.475,-53.86126 -95.4752,53.86126 0,-39.21477"
       id="path998"
       inkscape:path-effect="#path-effect1017"
       inkscape:original-d="m 1356.0547,409.37609 95.4752,-53.86127 95.475,53.86127 0,39.21477 -95.475,-53.86126 -95.4752,53.86126 z"
       inkscape:connector-curvature="0"
       sodipodi:nodetypes="ccccccc" />
    <g
       id="g1026">
      <g
         id="g1008"
         transform="matrix(0.95475037,0,0,0.94493453,836.46424,454.79259)">
        <path
           style="fill:#000000;fill-opacity:1;stroke:#000000;stroke-width:1px;stroke-linecap:butt;stroke-linejoin:miter;stroke-opacity:1"
           d="m 1332.8723,142.52361 100.0001,-57.000009 100,57.000009 0,41.49999 -100,-56.99999 -100.0001,56.99999 0,-41.49999"
           id="path1010"
           inkscape:path-effect="#path-effect1000"
           inkscape:original-d="m 1332.8723,142.52361 100.0001,-57.000009 100,57.000009 0,41.49999 -100,-56.99999 -100.0001,56.99999 z"
           inkscape:connector-curvature="0"
           sodipodi:nodetypes="ccccccc" />
        <path
           sodipodi:nodetypes="ccccccc"
           inkscape:connector-curvature="0"
           inkscape:original-d="m 1332.8723,209.63461 100.0001,-57 100,57 0,41.49999 -100,-56.99999 -100.0001,56.99999 z"
           inkscape:path-effect="#path-effect1002"
           id="path1012"
           d="m 1332.8723,209.63461 100.0001,-57 100,57 0,41.49999 -100,-56.99999 -100.0001,56.99999 0,-41.49999"
           style="fill:#000000;fill-opacity:1;stroke:#000000;stroke-width:1px;stroke-linecap:butt;stroke-linejoin:miter;stroke-opacity:1" />
      </g>
    </g>
    <path
       transform="matrix(1.0497184,0,0,1.0497184,-59.162934,450.87205)"
       d="m 257.14285,223.79076 a 91.428574,91.428574 0 1 1 -182.857144,0 91.428574,91.428574 0 1 1 182.857144,0 z"
       sodipodi:ry="91.428574"
       sodipodi:rx="91.428574"
       sodipodi:cy="223.79076"
       sodipodi:cx="165.71428"
       id="path1014"
       style="color:#000000;fill:#000000;fill-opacity:1;fill-rule:nonzero;stroke:none;stroke-width:0.498;marker:none;visibility:visible;display:inline;overflow:visible;enable-background:accumulate"
       sodipodi:type="arc" />
    <path
       style="fill:#000000;fill-opacity:1;stroke:none"
       d="m 1651.6587,666.51228 -19.5624,11.65625 21.7812,0 -31.2188,62.8125 0,21.0625 29,-17.09375 15.1563,8.9375 0,-75.71875 4.4063,0 -19.5626,-11.65625 z m -21.8437,13 -28.4375,16.9375 10.4688,24.0625 17.9687,-41 z m 58.8125,16.53125 0,30.5 4.2812,0 c 6.1407,0 10.75,-1.21875 13.8438,-3.65625 3.1406,-2.4375 4.7188,-6.39063 4.7188,-11.875 0,-5.10937 -1.4063,-8.875 -4.2188,-11.3125 -0.1475,-0.13 -0.3122,-0.25193 -0.4688,-0.375 l -2.5937,-1.53125 c -2.588,-1.15599 -5.9316,-1.75 -10.0313,-1.75 l -5.5312,0 z m -104.7188,10.84375 -28,16.65625 0,77.875 45.0938,-26.59375 0,-33.15625 -17.0938,-34.78125 z m 149.3438,8.21875 c -0.3153,2.7676 -0.8877,5.4458 -1.75,8.0625 -1.3594,4.125 -3.6094,7.76562 -6.75,10.90625 -3.0938,3.14063 -7.2031,5.65625 -12.3125,7.53125 -5.0625,1.875 -11.3437,2.8125 -18.8437,2.8125 l -4.9688,0 0,22.34375 58.7812,34.65625 0,-77.875 -14.1562,-8.4375 z"
       id="path1035"
       inkscape:connector-curvature="0"
       inkscape:export-filename="/Users/pigne/Documents/Web/pigne.org/src/images/up.png"
       inkscape:export-xdpi="140.99001"
       inkscape:export-ydpi="140.99001" />
    <text
       xml:space="preserve"
       style="font-size:32.5px;font-style:normal;font-variant:normal;font-weight:500;font-stretch:normal;text-align:start;line-height:150%;letter-spacing:0px;word-spacing:0px;writing-mode:lr-tb;text-anchor:start;fill:none;stroke:none;font-family:Futura;-inkscape-font-specification:Futura Medium"
       x="542.32397"
       y="166.8264"
       id="text56"
       sodipodi:linespacing="150%"><tspan
         sodipodi:role="line"
         id="tspan58"
         x="542.32397"
         y="166.8264"
         style="font-size:144px;font-style:normal;font-variant:normal;font-weight:bold;font-stretch:normal;line-height:150%;fill:#ffffff;fill-opacity:1;stroke:none;font-family:Droid Sans;-inkscape-font-specification:Droid Sans Bold">YP</tspan></text>
    <text
       xml:space="preserve"
       style="font-size:32.50000000000000000px;font-style:normal;font-variant:normal;font-weight:500;font-stretch:normal;text-align:start;line-height:150%;letter-spacing:0px;word-spacing:0px;writing-mode:lr-tb;text-anchor:start;fill:#ffffff;stroke:none;stroke-width:1px;stroke-linecap:butt;stroke-linejoin:miter;stroke-opacity:0.97536944999999997;font-family:Futura;-inkscape-font-specification:Futura Medium;fill-opacity:1"
       x="35.869495"
       y="707.74243"
       id="text60"
       sodipodi:linespacing="150%"><tspan
         sodipodi:role="line"
         id="tspan62"
         x="35.869495"
         y="707.74243"
         style="font-size:70px;font-style:normal;font-variant:normal;font-weight:500;font-stretch:normal;text-align:start;line-height:150%;writing-mode:lr;text-anchor:start;fill:#ffffff;fill-opacity:1;stroke:none;font-family:Futura;-inkscape-font-specification:Futura Medium;stroke-opacity:0.97536944999999997">Back</tspan></text>
    <path
       style="color:#000000;fill:#000000;fill-opacity:1;fill-rule:nonzero;stroke:none;stroke-width:0.498;marker:none;visibility:visible;display:inline;overflow:visible;enable-background:accumulate"
       d="m 596.14313,830.50279 c -53.00512,0 -95.96875,42.96363 -95.96875,95.96875 0,53.00512 42.96363,95.96876 95.96875,95.96876 53.00512,0 96,-42.96364 96,-95.96876 0,-53.00512 -42.99488,-95.96875 -96,-95.96875 z m 42.6875,60.1875 7.71875,0 0,35.21875 10.8125,-10.78125 10.34375,0 -14.46875,14 15.5,19.3125 -9.96875,0 -11,-14.0625 -1.21875,1.21875 0,12.84375 -7.71875,0 0,-57.75 z m -115.28125,4.96875 7.9375,0 c 3.5319,0 6.34115,0.26563 8.4375,0.8125 2.11914,0.54687 3.91667,1.48242 5.375,2.78125 1.48112,1.3444 2.66536,2.99479 3.53125,5 0.88867,2.02799 1.3125,4.08268 1.3125,6.15625 0,3.78255 -1.44987,7.00456 -4.34375,9.625 2.80273,0.95703 5.00716,2.60742 6.625,5 1.64062,2.36979 2.46875,5.13672 2.46875,8.28125 0,4.12435 -1.45833,7.62044 -4.375,10.46875 -1.75456,1.75456 -3.71875,2.97266 -5.90625,3.65625 -2.39258,0.66081 -5.39974,1 -9,1 l -12.0625,0 0,-52.78125 z m 7.96875,7.3125 0,15.34375 2.5,0 c 2.96224,0 5.13281,-0.63867 6.5,-1.9375 1.38997,-1.32161 2.0625,-3.26042 2.0625,-5.8125 0,-2.48372 -0.68099,-4.38021 -2.09375,-5.65625 -1.41276,-1.29883 -3.46745,-1.9375 -6.15625,-1.9375 l -2.8125,0 z m 46.125,11.25 c 3.8737,0 7.33008,1.59115 10.40625,4.78125 l 0,-3.875 7.71875,0 0,33.3125 -7.71875,0 0,-3.5 c -3.16732,2.96224 -6.57292,4.4375 -10.21875,4.4375 -4.60286,0 -8.39844,-1.67318 -11.40625,-5 -2.98503,-3.39518 -4.46875,-7.60612 -4.46875,-12.6875 0,-4.99023 1.48372,-9.17318 4.46875,-12.5 2.98503,-3.32682 6.72982,-4.96875 11.21875,-4.96875 z m 44.46875,0 c 3.28125,0 6.36458,0.77148 9.28125,2.34375 l 0,10.21875 c -1.75456,-2.14193 -3.32878,-3.60872 -4.71875,-4.40625 -1.36719,-0.82031 -2.9668,-1.21875 -4.8125,-1.21875 -2.89388,0 -5.30469,1.00326 -7.21875,3.03125 -1.91406,2.02799 -2.875,4.57161 -2.875,7.625 0,3.12174 0.93555,5.68229 2.78125,7.6875 1.86849,2.00521 4.23112,3 7.125,3 1.8457,0 3.49349,-0.38997 4.90625,-1.1875 1.36719,-0.77474 2.9668,-2.26693 4.8125,-4.5 l 0,10.125 c -3.12174,1.61784 -6.25326,2.4375 -9.375,2.4375 -5.14974,0 -9.44271,-1.67318 -12.90625,-5 -3.46354,-3.34961 -5.1875,-7.5013 -5.1875,-12.46875 0,-4.96745 1.74089,-9.14453 5.25,-12.5625 3.50911,-3.41797 7.83333,-5.125 12.9375,-5.125 z m -43.0625,6.9375 c -2.64323,0 -4.84766,0.99479 -6.625,3 -1.75456,2.02799 -2.625,4.54622 -2.625,7.53125 0,3.1901 0.85352,5.77604 2.5625,7.78125 1.75456,2.02799 3.95898,3.03125 6.625,3.03125 2.84831,0 5.15169,-0.97786 6.90625,-2.9375 1.75456,-2.02799 2.625,-4.59701 2.625,-7.71875 0,-3.12174 -0.87044,-5.69076 -2.625,-7.71875 -1.75456,-1.98242 -4.04102,-2.96875 -6.84375,-2.96875 z m -47.53125,3.8125 0,15.96875 4.9375,0 c 3.60026,0 6.22005,-0.71224 7.90625,-2.125 1.77734,-1.52669 2.6875,-3.46549 2.6875,-5.8125 0,-2.27865 -0.85352,-4.20052 -2.5625,-5.75 -1.66341,-1.52669 -4.65365,-2.28125 -8.9375,-2.28125 l -4.03125,0 z"
       id="path835"
       inkscape:connector-curvature="0"
       inkscape:export-filename="/Users/pigne/Documents/Web/pigne.org/src/images/back.png"
       inkscape:export-xdpi="93.769997"
       inkscape:export-ydpi="93.769997" />
  </g>
</svg>
