<?xml version="1.0" encoding="UTF-8" standalone="no"?>
<svg
   xmlns:osb="http://www.openswatchbook.org/uri/2009/osb"
   xmlns:dc="http://purl.org/dc/elements/1.1/"
   xmlns:cc="http://creativecommons.org/ns#"
   xmlns:rdf="http://www.w3.org/1999/02/22-rdf-syntax-ns#"
   xmlns:svg="http://www.w3.org/2000/svg"
   xmlns="http://www.w3.org/2000/svg"
   xmlns:sodipodi="http://sodipodi.sourceforge.net/DTD/sodipodi-0.dtd"
   xmlns:inkscape="http://www.inkscape.org/namespaces/inkscape"
   version="1.1"
   viewBox="1 416 2664.6487 72.656248"
   width="3330.811"
   height="90.820305"
   id="svg2"
   inkscape:version="0.48+devel r10526 custom"
   sodipodi:docname="bg3.svg">
  <sodipodi:namedview
     pagecolor="#ffffff"
     bordercolor="#666666"
     borderopacity="1"
     objecttolerance="10"
     gridtolerance="10"
     guidetolerance="10"
     inkscape:pageopacity="0"
     inkscape:pageshadow="2"
     inkscape:window-width="1440"
     inkscape:window-height="852"
     id="namedview52"
     showgrid="false"
     inkscape:zoom="4.9666861"
     inkscape:cx="34.34656"
     inkscape:cy="22.252371"
     inkscape:window-x="0"
     inkscape:window-y="0"
     inkscape:window-maximized="1"
     inkscape:current-layer="g17"
     fit-margin-top="0"
     fit-margin-left="0"
     fit-margin-right="0"
     fit-margin-bottom="0" />
  <metadata
     id="metadata4">
    <dc:date>2013-12-08 18:48Z</dc:date>
    <!-- Produced by OmniGraffle Professional 5.4.4 -->
    <rdf:RDF>
      <cc:Work
         rdf:about="">
        <dc:format>image/svg+xml</dc:format>
        <dc:type
           rdf:resource="http://purl.org/dc/dcmitype/StillImage" />
        <dc:title></dc:title>
      </cc:Work>
    </rdf:RDF>
  </metadata>
  <defs
     id="defs6">
    <linearGradient
       id="linearGradient2414"
       osb:paint="gradient">
      <stop
         style="stop-color:#000000;stop-opacity:1;"
         offset="0"
         id="stop2416" />
      <stop
         style="stop-color:#000000;stop-opacity:0;"
         offset="1"
         id="stop2418" />
    </linearGradient>
    <filter
       id="Shadow"
       filterUnits="userSpaceOnUse"
       color-interpolation-filters="sRGB">
      <feGaussianBlur
         in="SourceAlpha"
         result="blur"
         stdDeviation="3.488"
         id="feGaussianBlur9" />
      <feOffset
         in="blur"
         result="offset"
         dx="0"
         dy="4"
         id="feOffset11" />
      <feFlood
         flood-color="black"
         flood-opacity=".75"
         result="flood"
         id="feFlood13" />
      <feComposite
         in="flood"
         in2="offset"
         operator="in"
         id="feComposite15" />
    </filter>
  </defs>
  <g
     id="g17"
     style="fill:none;stroke:none"
     transform="translate(14.246122,-248.15644)">
    <title
       id="title19">Canvas 1</title>
    <g
       id="g1799"
       transform="translate(-23.995392,-0.03106209)">
      <path
         style="fill:#7b6a60;fill-opacity:0.02745098;stroke:#000000;stroke-width:0.28174019;stroke-linecap:round;stroke-linejoin:bevel;stroke-miterlimit:4;stroke-opacity:0.35294118;stroke-dasharray:none"
         d="m 10.802416,693.71437 71.24819,-20.282 65.555474,18.4896 62.94627,11.97917 66.86005,-32.29167 30.00551,32.03125 35.13018,-22.14435 35.47269,-2.2136 32.57695,-6.01876 45.60773,-4.48441 18.62532,4.58297 36.42876,10.37583 28.37472,-7.70183 66.53393,47.1354 70.81414,-37.35019 71.10027,-12.38941 65.55546,18.4896 62.94629,11.97917 66.86005,-32.29167 30.0055,32.03125 35.1302,-22.14435 35.4727,-2.2136 32.5769,-6.01876 45.6077,-4.48441 18.6253,5.38834 36.4289,9.57046 28.3747,-7.70183 66.5339,47.1354 70.6748,-48.62589 71.4166,-1.11371 65.5555,18.4896 62.9462,11.97917 66.8601,-32.29167 30.0055,32.03125 35.1302,-22.14435 35.4727,-2.2136 32.5769,-6.01876 45.6078,-4.48441 18.6253,4.58297 36.4287,10.37583 28.3748,-7.70183 66.5339,47.1354 70.8141,-37.35019 71.1003,-12.38941 65.5555,18.4896 62.9463,11.97917 66.86,-32.29167 30.0055,32.03125 35.1302,-22.14435 35.4727,-2.2136 32.5769,-6.01876 45.6077,-4.48441 18.6253,5.38834 36.4289,9.57046 28.3747,-7.70183 66.5339,47.1354 70.962,-39.92736"
         id="path32"
         inkscape:connector-curvature="0"
         sodipodi:nodetypes="ccccccccccccccccccccccccccccccccccccccccccccccccccccccccc" />
      <path
         style="fill:#7b6a60;fill-opacity:0.02745098;stroke:#000000;stroke-width:0.28174019;stroke-linecap:round;stroke-linejoin:bevel;stroke-miterlimit:4;stroke-opacity:0.35294118;stroke-dasharray:none"
         d="m 10.963489,685.82178 69.130236,21.46479 67.186205,-5.20835 64.92607,-37.76045 66.83714,45.2019 30.92799,-27.14107 33.3229,27.14107 34.72675,-21.1223 32.57695,-6.01877 45.60773,-4.48443 18.62532,4.583 33.1902,14.02166 32.25582,0.15734 66.21749,-7.8592 70.47489,-2.97519 0.0263,0 69.13023,21.46479 67.1862,-5.20835 64.92608,-37.76045 66.83714,45.2019 30.92799,-27.14107 33.32288,27.14107 34.7268,-21.1223 32.5769,-6.01877 45.6077,-4.48443 18.4642,10.70379 33.3514,7.90087 32.2557,0.15734 66.2176,-7.8592 70.5765,-2.97519 69.2319,21.46479 67.1862,-5.20835 64.9261,-37.76045 66.8371,45.2019 30.928,-27.14107 33.3229,27.14107 34.7268,-21.1223 32.5769,-6.01877 45.6078,-4.48443 18.6253,4.583 33.1902,14.02166 32.2558,0.15734 66.2175,-7.8592 70.4749,-2.97519 0.026,0 69.1302,21.46479 67.1862,-5.20835 64.9261,-37.76045 66.8371,45.2019 30.928,-27.14107 33.3229,27.14107 34.7268,-21.1223 32.5769,-6.01877 45.6077,-4.48443 18.4642,10.70379 33.3514,7.90087 32.2557,0.15734 66.2176,-7.8592 70.797,-10.7067"
         id="path34"
         inkscape:connector-curvature="0"
         sodipodi:nodetypes="ccccccccccccccccccccccccccccccccccccccccccccccccccccccccccc" />
      <path
         style="fill:#7b6a60;fill-opacity:0.02745098;stroke:#000000;stroke-width:0.28174019;stroke-linecap:round;stroke-linejoin:bevel;stroke-miterlimit:4;stroke-opacity:0.35294118;stroke-dasharray:none"
         d="m 10.963464,698.15764 70.434823,27.87895 64.903183,-5.98958 66.20775,9.41416 66.5339,-35.71624 30.92798,-2.25171 33.64904,-27.17539 34.40061,33.19414 30.82874,18.36833 47.6174,-23.17708 17.61193,-14.0625 33.91921,14.0625 32.2885,10.41665 66.53393,20.59326 70.16185,-25.13228 70.44799,27.45574 64.90317,-5.98958 66.20775,9.41416 66.53391,-35.71624 30.92799,-2.25171 33.64908,-27.17539 34.4006,33.19414 30.8287,18.36833 47.6174,-23.17708 17.934,-8.90815 33.5972,8.90815 32.2884,10.41665 66.5341,20.59326 70.2502,-28.77695 70.5365,31.10041 64.9032,-5.98958 66.2077,9.41416 66.5339,-35.71624 30.928,-2.25171 33.649,-27.17539 34.4006,33.19414 30.8288,18.36833 47.6174,-23.17708 17.6119,-14.0625 33.9192,14.0625 32.2885,10.41665 66.534,20.59326 70.1618,-25.13228 70.448,27.45574 64.9032,-5.98958 66.2077,9.41416 66.5339,-35.71624 30.928,-2.25171 33.6491,-27.17539 34.4006,33.19414 30.8287,18.36833 47.6174,-23.17708 17.934,-8.90815 33.5972,8.90815 32.2884,10.41665 66.5341,20.59326 70.1485,-28.77695"
         id="path36"
         inkscape:connector-curvature="0"
         sodipodi:nodetypes="ccccccccccccccccccccccccccccccccccccccccccccccccccccccccc" />
      <path
         style="fill:#7b6a60;fill-opacity:0.02745098;stroke:#000000;stroke-width:0.28174019;stroke-linecap:round;stroke-linejoin:bevel;stroke-miterlimit:4;stroke-opacity:0.35294118;stroke-dasharray:none"
         d="m 10.802416,715.86644 72.552771,-32.12804 64.205243,30.29717 63.31808,-4.5159 67.64181,13.9594 31.45081,-14.27756 32.57696,8.23236 35.47267,-2.2136 32.57697,-6.01876 45.60773,-4.48441 18.62532,4.58297 33.1902,14.02167 32.25582,0.15733 65.91428,12.8635 70.79125,-43.28769 72.40484,-9.31648 64.20523,30.29717 63.3181,-4.5159 67.64182,13.9594 31.45081,-14.27756 32.57697,8.23236 35.4727,-2.2136 32.5769,-6.01876 45.6077,-4.48441 18.6253,5.38834 33.1903,13.2163 32.2558,0.15733 65.9143,12.8635 70.8797,-23.69759 72.4934,-28.90658 64.2052,30.29717 63.3181,-4.5159 67.6418,13.9594 31.4508,-14.27756 32.577,8.23236 35.4727,-2.2136 32.5769,-6.01876 45.6078,-4.48441 18.6253,4.58297 33.1902,14.02167 32.2558,0.15733 65.9143,12.8635 70.7912,-43.28769 72.4049,-9.31648 64.2052,30.29717 63.3181,-4.5159 67.6418,13.9594 31.4508,-14.27756 32.577,8.23236 35.4727,-2.2136 32.5769,-6.01876 45.6077,-4.48441 18.6253,5.38834 33.1903,13.2163 32.2558,0.15733 65.9143,12.8635 70.9392,-30.62374"
         id="path38"
         inkscape:connector-curvature="0"
         sodipodi:nodetypes="ccccccccccccccccccccccccccccccccccccccccccccccccccccccccc" />
      <path
         style="fill:#7b6a60;fill-opacity:0.02745098;stroke:#000000;stroke-width:0.28174019;stroke-linecap:round;stroke-linejoin:bevel;stroke-miterlimit:4;stroke-opacity:0.35294118;stroke-dasharray:none"
         d="m 10.963426,707.47911 70.434786,-19.4431 64.903178,5.98958 66.20775,-9.41414 66.5339,35.71622 30.928,2.2517 29.66397,-23.8662 38.38565,17.84744 30.82876,-18.36831 44.28464,-23.19737 26.09174,17.1875 31.31006,8.07291 29.75063,10.69738 67.51244,-33.61409 69.18334,39.1874 70.44796,-28.49002 64.90317,5.98958 66.20775,-9.41414 66.53391,35.71622 30.92799,2.2517 29.66395,-23.8662 38.3857,17.84744 30.8287,-18.36831 44.2847,-23.19737 24.9642,22.50292 32.4376,2.75749 29.7506,10.69738 67.5125,-33.61409 69.3857,13.33302 70.4225,-2.63564 64.9032,5.98958 66.2077,-9.41414 66.5339,35.71622 30.928,2.2517 29.664,-23.8662 38.3857,17.84744 30.8287,-18.36831 44.2847,-23.19737 26.0917,17.1875 31.3101,8.07291 29.7506,10.69738 67.5124,-33.61409 69.1834,39.1874 70.4479,-28.49002 64.9032,5.98958 66.2078,-9.41414 66.5339,35.71622 30.9279,2.2517 29.664,-23.8662 38.3857,17.84744 30.8287,-18.36831 44.2847,-23.19737 24.9642,22.50292 32.4376,2.75749 29.7506,10.69738 67.5125,-33.61409 69.1701,23.69755"
         id="path40"
         inkscape:connector-curvature="0"
         sodipodi:nodetypes="ccccccccccccccccccccccccccccccccccccccccccccccccccccccccc" />
      <path
         style="fill:#7b6a60;fill-opacity:0.02745098;stroke:#000000;stroke-width:0.28174019;stroke-linecap:round;stroke-linejoin:bevel;stroke-miterlimit:4;stroke-opacity:0.35294118;stroke-dasharray:none"
         d="m 10.724334,724.60804 70.95193,-27.71783 65.231236,5.98956 63.52068,6.6399 66.54241,-25.78127 34.43391,47.69517 34.07529,-47.69517 34.31831,41.67641 30.98456,-18.36831 50.40885,-7.57243 21.30666,10.0456 27.9342,20.7039 32.45175,-10.41666 63.19284,9.83031 70.83574,-1.64664 70.79558,-31.10037 65.23123,5.98956 63.52068,6.6399 66.54241,-25.78127 34.43391,47.69517 34.07529,-47.69517 34.3183,41.67641 30.9845,-18.36831 50.409,-7.57243 21.3066,10.0456 27.9341,20.7039 32.4518,-10.41666 63.1928,9.83031 70.9243,-1.64664 70.8841,-31.10037 65.2312,5.98956 63.5207,6.6399 66.5424,-25.78127 34.4339,47.69517 34.0753,-47.69517 34.3183,41.67641 30.9846,-18.36831 50.4088,-7.57243 21.3067,10.0456 27.9342,20.7039 32.4517,-10.41666 63.1929,9.83031 70.8357,-1.64664 70.7956,-31.10037 65.2312,5.98956 63.5207,6.6399 66.5424,-25.78127 34.4339,47.69517 34.0753,-47.69517 34.3183,41.67641 30.9845,-18.36831 50.409,-7.57243 21.3066,10.0456 27.9341,20.7039 32.4518,-10.41666 63.1928,9.83031 70.831,6.40702"
         id="path42"
         inkscape:connector-curvature="0"
         sodipodi:nodetypes="ccccccccccccccccccccccccccccccccccccccccccccccccccccccccc" />
      <g
         id="use64"
         style="fill:#7b6a60;fill-opacity:0.02745098;stroke:#000000;stroke-width:0.1;stroke-miterlimit:4;stroke-opacity:0.35294118;stroke-dasharray:none;filter:url(#Shadow)"
         transform="matrix(1.568513,0,0,1,659.84351,-0.010265)" />
    </g>
    <g
       id="use29"
       style="fill:#7b6a60;fill-opacity:0.02745098;stroke:#000000;stroke-width:0.1;stroke-miterlimit:4;stroke-opacity:0.35294118;stroke-dasharray:none;filter:url(#Shadow)"
       transform="matrix(1.568513,0,0,1,-30.183886,-0.04132709)" />
    <g
       id="g1812"
       transform="translate(1308.2456,-0.03106209)">
      <path
         style="fill:#7b6a60;fill-opacity:0.02745098;stroke:#000000;stroke-width:0.28174019;stroke-linecap:round;stroke-linejoin:bevel;stroke-miterlimit:4;stroke-opacity:0.35294118;stroke-dasharray:none"
         d="m 1343.3232,674.69391 -69.4523,41.96768 -67.1863,-5.20832 -64.926,-36.95507 -66.8371,44.3965 -30.928,-27.14106 -33.3229,27.14106 -34.72679,-21.12229 -32.57696,-6.01877 -45.60772,-4.48442 -18.62534,4.58298 -33.19018,14.02167 -32.25584,0.15733 -66.21752,-7.85919 -70.48802,12.08786 -69.1434,6.40172 -67.18616,-5.20832 -64.9261,-37.76044 -66.83716,45.20187 -30.92798,-27.14106 -33.32289,27.14106 -34.72675,-21.12229 -32.57695,-6.01877 -45.60773,-4.48442 -18.62533,4.58298 -33.19018,14.02167 -32.25584,0.15733 -66.217524,-7.85919 -71.259879,7.41812 -68.548457,11.07146 -67.1863,-5.20832 -64.926,-36.95507 -66.8371,44.3965 -30.928,-27.14106 -33.3229,27.14106 -34.72679,-21.12229 -32.57696,-6.01877 -45.60772,-4.48442 -18.62534,4.58298 -33.19018,14.02167 -32.25584,0.15733 -66.21752,-7.85919 -70.48802,12.08786 -69.1434,6.40172 -67.18616,-5.20832 -64.9261,-37.76044 -66.83716,45.20187 -30.92798,-27.14106 -33.32289,27.14106 -34.72674,-21.12229 -32.577,-6.01877 -45.6077,-4.48442 -18.6253,4.58298 -33.1902,14.02167 -32.2558,0.15733 -66.2176,-7.85919 -70.6359,-15.10229"
         id="path1814"
         inkscape:connector-curvature="0"
         sodipodi:nodetypes="ccccccccccccccccccccccccccccccccccccccccccccccccccccccccc" />
      <g
         transform="matrix(1.568513,0,0,1,659.84351,-0.010265)"
         style="fill:#7b6a60;fill-opacity:0.02745098;stroke:#000000;stroke-width:0.1;stroke-miterlimit:4;stroke-opacity:0.35294118;stroke-dasharray:none;filter:url(#Shadow)"
         id="g1828" />
      <path
         style="fill:#7b6a60;fill-opacity:0.02745098;stroke:#000000;stroke-width:0.28174019;stroke-linecap:round;stroke-linejoin:bevel;stroke-miterlimit:4;stroke-opacity:0.35294118;stroke-dasharray:none"
         d="m 1343.0011,733.08818 -70.4348,-35.67721 -64.9032,5.98957 -66.3688,-4.09872 -66.3728,30.4008 -30.9279,2.25171 -29.6641,-23.86622 -38.38561,17.84746 -30.82875,-18.36832 -44.28465,-23.19738 -26.09172,17.1875 -31.31007,8.0729 -29.75063,10.6974 -66.86006,-46.6349 -69.83572,31.6048 -70.44798,-7.8866 -64.90314,5.98957 -66.20778,-9.41414 -66.5339,35.71622 -30.92799,2.25171 -29.66396,-23.86622 -38.38568,17.84746 -30.82874,-18.36832 -44.28465,-23.19738 -26.09172,17.1875 -31.31007,8.0729 -29.75063,10.6974 -66.860054,-46.6349 -70.03811,26.25169 -70.422586,-2.53349 -64.9032,5.98957 -66.3688,-4.09872 -66.3728,30.4008 -30.9279,2.25171 -29.6641,-23.86622 -38.38561,17.84746 -30.82875,-18.36832 -44.28465,-23.19738 -26.09172,17.1875 -31.31007,8.0729 -29.75063,10.6974 -66.86006,-46.6349 -69.83572,31.6048 -70.44798,-7.8866 -64.90314,5.98957 -66.20778,-9.41414 -66.5339,35.71622 -30.92799,2.25171 -29.66396,-23.86622 -38.38564,17.84746 -30.8288,-18.36832 -44.2846,-23.19738 -26.0917,17.1875 -31.3101,8.0729 -29.7507,10.6974 -66.86,-46.6349 -69.8225,59.39541"
         id="path1830"
         inkscape:connector-curvature="0"
         sodipodi:nodetypes="ccccccccccccccccccccccccccccccccccccccccccccccccccccccccc" />
      <path
         style="fill:#7b6a60;fill-opacity:0.02745098;stroke:#000000;stroke-width:0.28174019;stroke-linecap:round;stroke-linejoin:bevel;stroke-miterlimit:4;stroke-opacity:0.35294118;stroke-dasharray:none"
         d="m 1342.5178,692.47945 -69.9515,20.53632 -64.9032,-5.9896 -66.2077,10.21952 -66.5339,-36.52162 -30.928,-2.2517 -29.664,23.86623 -38.38565,-17.84743 -30.82874,18.3683 -44.28467,23.19737 -26.09171,-17.1875 -31.31007,-8.07292 -29.75063,-10.69737 -66.86005,46.63489 -68.69678,-59.39537 -71.58694,35.6772 -64.90315,-5.9896 -66.20776,9.41415 -66.5339,-35.71625 -30.92798,-2.2517 -29.66397,23.86623 -38.38568,-17.84743 -30.82873,18.3683 -44.28466,23.19737 -26.09172,-17.1875 -31.31006,-8.07292 -29.75064,-10.69737 -66.860049,46.63489 -70.8354158,-53.92837 -69.6252452,30.2102 -64.9032,-5.9896 -66.2077,10.21952 -66.5339,-36.52162 -30.928,-2.2517 -29.664,23.86623 -38.38565,-17.84743 -30.82874,18.3683 -44.28467,23.19737 -26.09171,-17.1875 -31.31007,-8.07292 -29.75063,-10.69737 -66.86005,46.63489 -68.69678,-59.39537 -71.58694,35.6772 -64.90315,-5.9896 -66.20776,9.41415 -66.5339,-35.71625 -30.92798,-2.2517 -29.66397,23.86623 -38.3857,-17.84743 -30.8287,18.3683 -44.2847,23.19737 -26.0917,-17.1875 -31.31,-8.07292 -29.7507,-10.69737 -66.86,46.63489 -69.8226,-59.39537"
         id="path1832"
         inkscape:connector-curvature="0"
         sodipodi:nodetypes="ccccccccccccccccccccccccccccccccccccccccccccccccccccccccc" />
      <path
         style="fill:#7b6a60;fill-opacity:0.02745098;stroke:#000000;stroke-width:0.28174019;stroke-linecap:round;stroke-linejoin:bevel;stroke-miterlimit:4;stroke-opacity:0.35294118;stroke-dasharray:none"
         d="m 1343.1622,723.4817 -69.2913,-36.81323 -67.1863,5.20832 -64.926,38.5658 -66.8371,-46.00724 -30.928,27.14106 -33.3229,-27.14106 -34.72679,21.12229 -32.57696,6.01877 -45.60773,4.48442 -18.62533,-4.58296 -33.19018,-14.0217 -32.25584,-0.1573 -66.21752,7.85917 -70.48802,13.65254 -69.1434,-32.14211 -67.18616,5.20832 -64.9261,37.76043 -66.83716,-45.20187 -30.92798,27.14106 -33.32289,-27.14106 -34.72675,21.12229 -32.57695,6.01877 -45.60774,4.48442 -18.62532,-4.58296 -33.19018,-14.0217 -32.25584,-0.1573 -66.217524,7.85917 -70.576506,27.32005 -69.23183,-45.80962 -67.1863,5.20832 -64.926,38.5658 -66.8371,-46.00724 -30.928,27.14106 -33.3229,-27.14106 -34.72679,21.12229 -32.57696,6.01877 -45.60773,4.48442 -18.62533,-4.58296 -33.19018,-14.0217 -32.25584,-0.1573 -66.21752,7.85917 -70.48802,13.65254 -69.1434,-32.14211 -67.18616,5.20832 -64.9261,37.76043 -66.83716,-45.20187 -30.92798,27.14106 -33.32289,-27.14106 -34.72674,21.12229 -32.577,6.01877 -45.6077,4.48442 -18.6253,-4.58296 -33.1902,-14.0217 -32.2558,-0.1573 -66.2176,7.85917 -70.4748,13.65254"
         id="path1834"
         inkscape:connector-curvature="0"
         sodipodi:nodetypes="ccccccccccccccccccccccccccccccccccccccccccccccccccccccccc" />
    </g>
  </g>
</svg>
