<?xml version="1.0" encoding="UTF-8" standalone="no"?>
<svg
   xmlns:osb="http://www.openswatchbook.org/uri/2009/osb"
   xmlns:dc="http://purl.org/dc/elements/1.1/"
   xmlns:cc="http://creativecommons.org/ns#"
   xmlns:rdf="http://www.w3.org/1999/02/22-rdf-syntax-ns#"
   xmlns:svg="http://www.w3.org/2000/svg"
   xmlns="http://www.w3.org/2000/svg"
   xmlns:xlink="http://www.w3.org/1999/xlink"
   xmlns:sodipodi="http://sodipodi.sourceforge.net/DTD/sodipodi-0.dtd"
   xmlns:inkscape="http://www.inkscape.org/namespaces/inkscape"
   version="1.1"
   viewBox="1 416 1332.4079 360.00002"
   width="1665.5099"
   height="450"
   id="svg2"
   inkscape:version="0.48+devel r10526 custom"
   sodipodi:docname="bg2.svg">
  <sodipodi:namedview
     pagecolor="#ffffff"
     bordercolor="#666666"
     borderopacity="1"
     objecttolerance="10"
     gridtolerance="10"
     guidetolerance="10"
     inkscape:pageopacity="0"
     inkscape:pageshadow="2"
     inkscape:window-width="1440"
     inkscape:window-height="852"
     id="namedview52"
     showgrid="false"
     inkscape:zoom="0.43899718"
     inkscape:cx="785.52553"
     inkscape:cy="10.465269"
     inkscape:window-x="12"
     inkscape:window-y="107"
     inkscape:window-maximized="0"
     inkscape:current-layer="g17"
     fit-margin-top="0"
     fit-margin-left="0"
     fit-margin-right="0"
     fit-margin-bottom="0" />
  <metadata
     id="metadata4">
    <dc:date>2013-12-08 18:48Z</dc:date>
    <!-- Produced by OmniGraffle Professional 5.4.4 -->
    <rdf:RDF>
      <cc:Work
         rdf:about="">
        <dc:format>image/svg+xml</dc:format>
        <dc:type
           rdf:resource="http://purl.org/dc/dcmitype/StillImage" />
        <dc:title />
      </cc:Work>
    </rdf:RDF>
  </metadata>
  <defs
     id="defs6">
    <linearGradient
       id="linearGradient2414"
       osb:paint="gradient">
      <stop
         style="stop-color:#000000;stop-opacity:1;"
         offset="0"
         id="stop2416" />
      <stop
         style="stop-color:#000000;stop-opacity:0;"
         offset="1"
         id="stop2418" />
    </linearGradient>
    <filter
       id="Shadow"
       filterUnits="userSpaceOnUse"
       color-interpolation-filters="sRGB">
      <feGaussianBlur
         in="SourceAlpha"
         result="blur"
         stdDeviation="3.488"
         id="feGaussianBlur9" />
      <feOffset
         in="blur"
         result="offset"
         dx="0"
         dy="4"
         id="feOffset11" />
      <feFlood
         flood-color="black"
         flood-opacity=".75"
         result="flood"
         id="feFlood13" />
      <feComposite
         in="flood"
         in2="offset"
         operator="in"
         id="feComposite15" />
    </filter>
  </defs>
  <g
     id="g17"
     style="fill:none;stroke:none"
     transform="translate(-9.7491507,39.156272)">
    <title
       id="title19">Canvas 1</title>
    <path
       style="fill:#7a6a60;fill-opacity:0.02745098;stroke:#000000;stroke-width:0.28174019000000000;stroke-linecap:round;stroke-linejoin:bevel;stroke-miterlimit:4;stroke-opacity:0.19909499999999999;stroke-dasharray:none"
       d="m 1343.0011,684.51938 -69.1302,32.14221 -67.1863,-5.20832 -64.926,-36.95507 -66.8371,44.3965 -30.928,-27.14106 -33.3229,27.14106 -34.72679,-21.12229 -32.57696,-6.01877 -45.60772,-4.48442 -18.62534,4.58298 -33.19018,14.02167 -32.25584,0.15733 -66.21752,-7.85919 -70.48802,12.08786 -69.1434,6.40172 -67.18616,-5.20832 -64.9261,-37.76044 -66.83716,45.20187 -30.92798,-27.14106 -33.32289,27.14106 -34.72675,-21.12229 -32.57695,-6.01877 -45.60773,-4.48442 -18.62533,4.58298 -33.19018,14.02167 -32.25584,0.15733 -66.217524,-7.85919 -70.474873,-13.65263"
       id="path84"
       inkscape:connector-curvature="0"
       sodipodi:nodetypes="ccccccccccccccccccccccccccccc" />
    <g
       transform="matrix(1.2524029,0,0,1,-2.7475079,-0.0051325)"
       style="fill:#c9c0ba;fill-opacity:0.09019608;stroke:#000000;stroke-width:0.10000000000000001;stroke-miterlimit:4;stroke-opacity:0.40271493000000003;stroke-dasharray:none"
       id="g27">
      <use
         height="347"
         width="551"
         y="0"
         x="0"
         style="fill:#c9c0ba;fill-opacity:0.09019608;stroke:#000000;stroke-width:0.10000000000000001;stroke-miterlimit:4;stroke-opacity:0.40271493000000003;stroke-dasharray:none;filter:url(#Shadow)"
         id="use29"
         xlink:href="#id124_Graphic" />
    </g>
    <g
       transform="matrix(1.2524029,0,0,1,-2.7475079,-0.0051325)"
       style="fill:#c9c0ba;fill-opacity:0.09019608;stroke:#000000;stroke-width:0.10000000000000001;stroke-miterlimit:4;stroke-opacity:0.40271493000000003;stroke-dasharray:none"
       id="id124_Graphic" />
    <path
       sodipodi:nodetypes="ccccccccccccccccccccccccccccc"
       inkscape:connector-curvature="0"
       id="path32"
       d="m 10.963489,685.82178 71.087117,-12.38941 65.555474,18.4896 62.94627,11.97917 66.86005,-32.29167 30.00551,32.03125 35.13018,-22.14435 35.47269,-2.2136 32.57695,-6.01876 45.60773,-4.48441 18.62532,4.58297 36.42876,10.37583 28.37472,-7.70183 66.53393,47.1354 70.81414,-37.35019 71.10027,-12.38941 65.55546,18.4896 62.94629,11.97917 66.86005,-32.29167 30.0055,32.03125 35.1302,-22.14435 35.4727,-2.2136 32.5769,-6.01876 45.6077,-4.48441 18.6253,5.38834 36.4289,9.57046 28.3747,-7.70183 66.5339,47.1354 70.801,-37.35019"
       style="fill:#7a6a60;fill-opacity:0.02745098;stroke:#000000;stroke-width:0.28174019000000000;stroke-linecap:round;stroke-linejoin:bevel;stroke-miterlimit:4;stroke-opacity:0.19909499999999999;stroke-dasharray:none" />
    <path
       sodipodi:nodetypes="cccccccccccccccccccccccccccccc"
       inkscape:connector-curvature="0"
       id="path34"
       d="m 10.963489,685.82178 69.130236,21.46479 67.186205,-5.20835 64.92607,-37.76045 66.83714,45.2019 30.92799,-27.14107 33.3229,27.14107 34.72675,-21.1223 32.57695,-6.01877 45.60773,-4.48443 18.62532,4.583 33.1902,14.02166 32.25582,0.15734 66.21749,-7.8592 70.47489,-2.97519 0.0263,0 69.13023,21.46479 67.1862,-5.20835 64.92608,-37.76045 66.83714,45.2019 30.92799,-27.14107 33.32288,27.14107 34.7268,-21.1223 32.5769,-6.01877 45.6077,-4.48443 18.4642,10.70379 33.3514,7.90087 32.2557,0.15734 66.2176,-7.8592 70.4749,-2.97519"
       style="fill:#7a6a60;fill-opacity:0.02745098;stroke:#000000;stroke-width:0.28174019000000000;stroke-linecap:round;stroke-linejoin:bevel;stroke-miterlimit:4;stroke-opacity:0.19909499999999999;stroke-dasharray:none" />
    <path
       sodipodi:nodetypes="ccccccccccccccccccccccccccccc"
       inkscape:connector-curvature="0"
       id="path36"
       d="m 10.963464,694.93618 70.434823,31.10041 64.903183,-5.98958 66.20775,9.41416 66.5339,-35.71624 30.92798,-2.25171 33.64904,-27.17539 34.40061,33.19414 30.82874,18.36833 47.6174,-23.17708 17.61193,-14.0625 33.91921,14.0625 32.2885,10.41665 66.53393,20.59326 70.16185,-25.13228 70.44799,27.45574 64.90317,-5.98958 66.20775,9.41416 66.53391,-35.71624 30.92799,-2.25171 33.64908,-27.17539 34.4006,33.19414 30.8287,18.36833 47.6174,-23.17708 17.934,-8.90815 33.5972,8.90815 32.2884,10.41665 66.5341,20.59326 70.1485,-28.77695"
       style="fill:#7a6a60;fill-opacity:0.02745098;stroke:#000000;stroke-width:0.28174019000000000;stroke-linecap:round;stroke-linejoin:bevel;stroke-miterlimit:4;stroke-opacity:0.19909499999999999;stroke-dasharray:none" />
    <path
       sodipodi:nodetypes="ccccccccccccccccccccccccccccc"
       inkscape:connector-curvature="0"
       id="path38"
       d="m 10.963489,712.64498 72.391698,-28.90658 64.205243,30.29717 63.31808,-4.5159 67.64181,13.9594 31.45081,-14.27756 32.57696,8.23236 35.47267,-2.2136 32.57697,-6.01876 45.60773,-4.48441 18.62532,4.58297 33.1902,14.02167 32.25582,0.15733 65.91428,12.8635 70.79125,-43.28769 72.40484,-9.31648 64.20523,30.29717 63.3181,-4.5159 67.64182,13.9594 31.45081,-14.27756 32.57697,8.23236 35.4727,-2.2136 32.5769,-6.01876 45.6077,-4.48441 18.6253,5.38834 33.1903,13.2163 32.2558,0.15733 65.9143,12.8635 70.7781,-23.69759"
       style="fill:#7a6a60;fill-opacity:0.02745098;stroke:#000000;stroke-width:0.28174019000000000;stroke-linecap:round;stroke-linejoin:bevel;stroke-miterlimit:4;stroke-opacity:0.19909499999999999;stroke-dasharray:none" />
    <path
       sodipodi:nodetypes="ccccccccccccccccccccccccccccc"
       inkscape:connector-curvature="0"
       id="path40"
       d="m 10.963426,701.03618 70.434786,-13.00017 64.903178,5.98958 66.20775,-9.41414 66.5339,35.71622 30.928,2.2517 29.66397,-23.8662 38.38565,17.84744 30.82876,-18.36831 44.28464,-23.19737 26.09174,17.1875 31.31006,8.07291 29.75063,10.69738 67.51244,-33.61409 69.18334,39.1874 70.44796,-28.49002 64.90317,5.98958 66.20775,-9.41414 66.53391,35.71622 30.92799,2.2517 29.66395,-23.8662 38.3857,17.84744 30.8287,-18.36831 44.2847,-23.19737 24.9642,22.50292 32.4376,2.75749 29.7506,10.69738 67.5125,-33.61409 69.1701,23.69755"
       style="fill:#7a6a60;fill-opacity:0.02745098;stroke:#000000;stroke-width:0.28174019000000000;stroke-linecap:round;stroke-linejoin:bevel;stroke-miterlimit:4;stroke-opacity:0.19909499999999999;stroke-dasharray:none" />
    <path
       sodipodi:nodetypes="ccccccccccccccccccccccccccccc"
       inkscape:connector-curvature="0"
       id="path42"
       d="m 10.885407,727.99058 70.790857,-31.10037 65.231236,5.98956 63.52068,6.6399 66.54241,-25.78127 34.43391,47.69517 34.07529,-47.69517 34.31831,41.67641 30.98456,-18.36831 50.40885,-7.57243 21.30666,10.0456 27.9342,20.7039 32.45175,-10.41666 63.19284,9.83031 70.83574,-1.64664 70.79558,-31.10037 65.23123,5.98956 63.52068,6.6399 66.54241,-25.78127 34.43391,47.69517 34.07529,-47.69517 34.3183,41.67641 30.9845,-18.36831 50.409,-7.57243 21.3066,10.0456 27.9341,20.7039 32.4518,-10.41666 63.1928,9.83031 70.831,-1.64664"
       style="fill:#7a6a60;fill-opacity:0.02745098;stroke:#000000;stroke-width:0.28174019000000000;stroke-linecap:round;stroke-linejoin:bevel;stroke-miterlimit:4;stroke-opacity:0.19909499999999999;stroke-dasharray:none" />
    <g
       id="g62"
       style="fill:#c9c0ba;fill-opacity:0.09019608;stroke:#000000;stroke-width:0.10000000000000001;stroke-miterlimit:4;stroke-opacity:0.40271493000000003;stroke-dasharray:none"
       transform="matrix(1.2524029,0,0,1,663.2845,-0.0051325)">
      <use
         xlink:href="#id124_Graphic"
         id="use64"
         style="fill:#c9c0ba;fill-opacity:0.09019608;stroke:#000000;stroke-width:0.10000000000000001;stroke-miterlimit:4;stroke-opacity:0.40271493000000003;stroke-dasharray:none;filter:url(#Shadow)"
         x="0"
         y="0"
         width="551"
         height="347" />
    </g>
    <g
       id="g66"
       style="fill:#c9c0ba;fill-opacity:0.09019608;stroke:#000000;stroke-width:0.10000000000000001;stroke-miterlimit:4;stroke-opacity:0.40271493000000003;stroke-dasharray:none"
       transform="matrix(1.2524029,0,0,1,663.2845,-0.0051325)" />
    <path
       style="fill:#7a6a60;fill-opacity:0.02745098;stroke:#000000;stroke-width:0.28174019000000000;stroke-linecap:round;stroke-linejoin:bevel;stroke-miterlimit:4;stroke-opacity:0.19909499999999999;stroke-dasharray:none"
       d="m 1343.0011,733.08818 -70.4348,-35.67721 -64.9032,5.98957 -66.3688,-4.09872 -66.3728,30.4008 -30.9279,2.25171 -29.6641,-23.86622 -38.38561,17.84746 -30.82875,-18.36832 -44.28465,-23.19738 -26.09172,17.1875 -31.31007,8.0729 -29.75063,10.6974 -66.86006,-46.6349 -69.83572,31.6048 -70.44798,-7.8866 -64.90314,5.98957 -66.20778,-9.41414 -66.5339,35.71622 -30.92799,2.25171 -29.66396,-23.86622 -38.38568,17.84746 -30.82874,-18.36832 -44.28465,-23.19738 -26.09172,17.1875 -31.31007,8.0729 -29.75063,10.6974 -66.860054,-46.6349 -69.822532,59.39541"
       id="path80"
       inkscape:connector-curvature="0"
       sodipodi:nodetypes="ccccccccccccccccccccccccccccc" />
    <path
       style="fill:#7a6a60;fill-opacity:0.02745098;stroke:#000000;stroke-width:0.28174019000000000;stroke-linecap:round;stroke-linejoin:bevel;stroke-miterlimit:4;stroke-opacity:0.19909499999999999;stroke-dasharray:none"
       d="m 1343.001,677.33857 -70.4347,35.6772 -64.9032,-5.9896 -66.2077,10.21952 -66.5339,-36.52162 -30.928,-2.2517 -29.664,23.86623 -38.38565,-17.84743 -30.82874,18.3683 -44.28467,23.19737 -26.09171,-17.1875 -31.31007,-8.07292 -29.75063,-10.69737 -66.86005,46.63489 -68.69678,-59.39537 -71.58694,35.6772 -64.90315,-5.9896 -66.20776,9.41415 -66.5339,-35.71625 -30.92798,-2.2517 -29.66397,23.86623 -38.38568,-17.84743 -30.82873,18.3683 -44.28466,23.19737 -26.09172,-17.1875 -31.31006,-8.07292 -29.75064,-10.69737 -66.860049,46.63489 -69.822536,-59.39537"
       id="path82"
       inkscape:connector-curvature="0"
       sodipodi:nodetypes="ccccccccccccccccccccccccccccc" />
    <path
       style="fill:#7a6a60;fill-opacity:0.02745098;stroke:#000000;stroke-width:0.28174019000000000;stroke-linecap:round;stroke-linejoin:bevel;stroke-miterlimit:4;stroke-opacity:0.19909499999999999;stroke-dasharray:none"
       d="m 1343.0011,718.81058 -69.1302,-32.14211 -67.1863,5.20832 -64.926,38.5658 -66.8371,-46.00724 -30.928,27.14106 -33.3229,-27.14106 -34.72679,21.12229 -32.57696,6.01877 -45.60773,4.48442 -18.62533,-4.58296 -33.19018,-14.0217 -32.25584,-0.1573 -66.21752,7.85917 -70.48802,13.65254 -69.1434,-32.14211 -67.18616,5.20832 -64.9261,37.76043 -66.83716,-45.20187 -30.92798,27.14106 -33.32289,-27.14106 -34.72675,21.12229 -32.57695,6.01877 -45.60774,4.48442 -18.62532,-4.58296 -33.19018,-14.0217 -32.25584,-0.1573 -66.217524,7.85917 -70.474875,13.65254"
       id="path86"
       inkscape:connector-curvature="0"
       sodipodi:nodetypes="ccccccccccccccccccccccccccccc" />
  </g>
</svg>
